STARTFONT 2.1
FONT -MIT-20FCOR KST-Medium-R-Normal--20-7-200-200-P-15-ISO8859-1
SIZE 7 200 200
FONTBOUNDINGBOX 16 20 -5 -4
STARTPROPERTIES 17
ADD_STYLE_NAME ""
AVERAGE_WIDTH 15
CHARSET_ENCODING "1"
CHARSET_REGISTRY "ISO8859"
DEFAULT_CHAR 0
FAMILY "20FCOR KST"
FONT_ASCENT 16
FONT_DESCENT 4
FOUNDRY "MIT"
PIXEL_SIZE 20
POINT_SIZE 7
RESOLUTION_X 200
RESOLUTION_Y 200
SETWIDTH_NAME "Normal"
SLANT "R"
SPACING "P"
WEIGHT_NAME "Medium"
ENDPROPERTIES
CHARS 97
STARTCHAR char11
ENCODING 11
SWIDTH 2272 0
DWIDTH 16 0
BBX 12 20 2 -4
BITMAP
0000
0000
0000
0600
0600
0F00
1F80
36C0
6660
C630
0600
0600
0600
0600
0600
0600
0000
0000
0000
0000
ENDCHAR
STARTCHAR char24
ENCODING 24
SWIDTH 2272 0
DWIDTH 16 0
BBX 14 20 1 -4
BITMAP
0000
0000
0000
0000
0000
0000
0000
0300
0E00
3800
FFFC
FFFC
3800
0E00
0300
0000
0000
0000
0000
0000
ENDCHAR
STARTCHAR char32
ENCODING 32
SWIDTH 2272 0
DWIDTH 16 0
BBX 1 20 0 -4
BITMAP
00
00
00
00
00
00
00
00
00
00
00
00
00
00
00
00
00
00
00
00
ENDCHAR
STARTCHAR char33
ENCODING 33
SWIDTH 2272 0
DWIDTH 16 0
BBX 4 20 5 -4
BITMAP
00
60
F0
F0
F0
F0
F0
F0
60
60
60
60
00
60
F0
60
00
00
00
00
ENDCHAR
STARTCHAR char34
ENCODING 34
SWIDTH 2272 0
DWIDTH 16 0
BBX 9 20 3 -4
BITMAP
0000
E380
E380
E380
E380
6180
6180
0000
0000
0000
0000
0000
0000
0000
0000
0000
0000
0000
0000
0000
ENDCHAR
STARTCHAR char35
ENCODING 35
SWIDTH 2272 0
DWIDTH 16 0
BBX 13 20 1 -4
BITMAP
0000
18C0
18C0
18C0
18C0
18C0
FFF8
18C0
18C0
18C0
FFF8
18C0
18C0
18C0
18C0
18C0
0000
0000
0000
0000
ENDCHAR
STARTCHAR char36
ENCODING 36
SWIDTH 2272 0
DWIDTH 16 0
BBX 11 20 3 -4
BITMAP
0000
0600
0600
3FC0
E0C0
C040
C000
7800
0F80
00C0
8060
C060
E1C0
FF00
0C00
0C00
0C00
0C00
0000
0000
ENDCHAR
STARTCHAR char37
ENCODING 37
SWIDTH 2272 0
DWIDTH 16 0
BBX 12 20 2 -4
BITMAP
0000
0000
0000
7E00
C300
C300
C300
7E30
03C0
3C00
E7E0
0C30
0C30
0C30
07E0
0000
0000
0000
0000
0000
ENDCHAR
STARTCHAR char38
ENCODING 38
SWIDTH 2272 0
DWIDTH 16 0
BBX 13 20 1 -4
BITMAP
0000
0000
0000
0000
0F00
19E0
3040
3000
3000
1C00
7618
E330
C1B0
C0E0
63F0
3E18
0000
0000
0000
0000
ENDCHAR
STARTCHAR char39
ENCODING 39
SWIDTH 2272 0
DWIDTH 16 0
BBX 4 20 5 -4
BITMAP
00
F0
F0
F0
70
70
70
00
00
00
00
00
00
00
00
00
00
00
00
00
ENDCHAR
STARTCHAR char40
ENCODING 40
SWIDTH 2272 0
DWIDTH 16 0
BBX 5 20 5 -4
BITMAP
00
18
30
60
60
60
C0
C0
C0
C0
C0
C0
60
60
60
30
18
00
00
00
ENDCHAR
STARTCHAR char41
ENCODING 41
SWIDTH 2272 0
DWIDTH 16 0
BBX 5 20 5 -4
BITMAP
00
C0
60
30
30
30
18
18
18
18
18
18
30
30
30
60
C0
00
00
00
ENDCHAR
STARTCHAR char42
ENCODING 42
SWIDTH 2272 0
DWIDTH 16 0
BBX 11 20 2 -4
BITMAP
0000
0000
0000
0E00
0E00
CE60
FFE0
0E00
1F00
3B80
71C0
0000
0000
0000
0000
0000
0000
0000
0000
0000
ENDCHAR
STARTCHAR char43
ENCODING 43
SWIDTH 2272 0
DWIDTH 16 0
BBX 14 20 1 -4
BITMAP
0000
0000
0000
0000
0000
0300
0300
0300
0300
FFFC
FFFC
0300
0300
0300
0300
0300
0000
0000
0000
0000
ENDCHAR
STARTCHAR char44
ENCODING 44
SWIDTH 2272 0
DWIDTH 16 0
BBX 6 20 5 -4
BITMAP
00
00
00
00
00
00
00
00
00
00
00
00
00
3C
3C
78
70
E0
C0
00
ENDCHAR
STARTCHAR char45
ENCODING 45
SWIDTH 2272 0
DWIDTH 16 0
BBX 12 20 2 -4
BITMAP
0000
0000
0000
0000
0000
0000
0000
0000
FFF0
FFF0
0000
0000
0000
0000
0000
0000
0000
0000
0000
0000
ENDCHAR
STARTCHAR char46
ENCODING 46
SWIDTH 2272 0
DWIDTH 16 0
BBX 5 20 5 -4
BITMAP
00
00
00
00
00
00
00
00
00
00
00
00
00
70
F8
F8
70
00
00
00
ENDCHAR
STARTCHAR char47
ENCODING 47
SWIDTH 2272 0
DWIDTH 16 0
BBX 16 20 0 -4
BITMAP
0000
0001
0003
0006
000C
0018
0030
0060
00C0
0180
0300
0600
0C00
1800
3000
6000
C000
8000
0000
0000
ENDCHAR
STARTCHAR char48
ENCODING 48
SWIDTH 2272 0
DWIDTH 16 0
BBX 12 20 2 -4
BITMAP
0000
0000
0000
1F80
30C0
6060
6060
C030
C030
C030
C030
C030
6060
6060
30C0
1F80
0000
0000
0000
0000
ENDCHAR
STARTCHAR char49
ENCODING 49
SWIDTH 2272 0
DWIDTH 16 0
BBX 7 20 4 -4
BITMAP
00
00
00
18
38
78
D8
18
18
18
18
18
18
18
18
FE
00
00
00
00
ENDCHAR
STARTCHAR char50
ENCODING 50
SWIDTH 2272 0
DWIDTH 16 0
BBX 11 20 2 -4
BITMAP
0000
0000
0000
0E00
3F80
60C0
C060
0060
0060
00C0
0180
0700
1C00
3000
E060
FFE0
0000
0000
0000
0000
ENDCHAR
STARTCHAR char51
ENCODING 51
SWIDTH 2272 0
DWIDTH 16 0
BBX 11 20 2 -4
BITMAP
0000
0000
0000
1F00
71C0
6060
0060
0060
01C0
0F80
01C0
0060
0060
0060
F1C0
3F80
0000
0000
0000
0000
ENDCHAR
STARTCHAR char52
ENCODING 52
SWIDTH 2272 0
DWIDTH 16 0
BBX 13 20 1 -4
BITMAP
0000
0000
0000
00C0
01C0
03C0
06C0
0CC0
18C0
30C0
60C0
C0C0
FFF8
00C0
00C0
03F0
0000
0000
0000
0000
ENDCHAR
STARTCHAR char53
ENCODING 53
SWIDTH 2272 0
DWIDTH 16 0
BBX 12 20 2 -4
BITMAP
0000
0000
0000
7FE0
6000
6000
6000
6000
7F80
60E0
0030
0030
0030
0030
E0E0
3F80
0000
0000
0000
0000
ENDCHAR
STARTCHAR char54
ENCODING 54
SWIDTH 2272 0
DWIDTH 16 0
BBX 12 20 2 -4
BITMAP
0000
0000
0000
0FC0
3860
6000
6000
C000
CF80
F8E0
E030
C030
C030
6030
38E0
0F80
0000
0000
0000
0000
ENDCHAR
STARTCHAR char55
ENCODING 55
SWIDTH 2272 0
DWIDTH 16 0
BBX 12 20 2 -4
BITMAP
0000
0000
0000
FFF0
C060
0060
00C0
00C0
0180
0180
0300
0300
0600
0600
0C00
0C00
0000
0000
0000
0000
ENDCHAR
STARTCHAR char56
ENCODING 56
SWIDTH 2272 0
DWIDTH 16 0
BBX 12 20 2 -4
BITMAP
0000
0000
0000
1F80
70E0
C030
C030
C030
6060
3FC0
70E0
C030
C030
C030
70E0
1F80
0000
0000
0000
0000
ENDCHAR
STARTCHAR char57
ENCODING 57
SWIDTH 2272 0
DWIDTH 16 0
BBX 12 20 2 -4
BITMAP
0000
0000
0000
1F00
71C0
C060
C030
C030
C070
61F0
3F30
0030
0060
00E0
0380
7E00
0000
0000
0000
0000
ENDCHAR
STARTCHAR char58
ENCODING 58
SWIDTH 2272 0
DWIDTH 16 0
BBX 5 20 5 -4
BITMAP
00
00
00
00
00
00
00
00
70
F8
70
00
00
70
F8
70
00
00
00
00
ENDCHAR
STARTCHAR char59
ENCODING 59
SWIDTH 2272 0
DWIDTH 16 0
BBX 6 20 4 -4
BITMAP
00
00
00
00
00
00
00
38
7C
38
00
00
38
78
78
F0
E0
C0
00
00
ENDCHAR
STARTCHAR char60
ENCODING 60
SWIDTH 2272 0
DWIDTH 16 0
BBX 8 20 4 -4
BITMAP
00
00
00
03
06
0C
18
30
60
C0
60
30
18
0C
06
03
00
00
00
00
ENDCHAR
STARTCHAR char61
ENCODING 61
SWIDTH 2272 0
DWIDTH 16 0
BBX 14 20 1 -4
BITMAP
0000
0000
0000
0000
0000
0000
0000
FFFC
FFFC
0000
0000
FFFC
FFFC
0000
0000
0000
0000
0000
0000
0000
ENDCHAR
STARTCHAR char62
ENCODING 62
SWIDTH 2272 0
DWIDTH 16 0
BBX 8 20 4 -4
BITMAP
00
00
00
C0
60
30
18
0C
06
03
06
0C
18
30
60
C0
00
00
00
00
ENDCHAR
STARTCHAR char63
ENCODING 63
SWIDTH 2272 0
DWIDTH 16 0
BBX 11 20 2 -4
BITMAP
0000
0000
0000
0000
3F80
60C0
C060
0060
00E0
0380
0E00
0C00
0000
0000
1E00
1E00
0000
0000
0000
0000
ENDCHAR
STARTCHAR char64
ENCODING 64
SWIDTH 2272 0
DWIDTH 16 0
BBX 14 20 1 -4
BITMAP
0000
07C0
1C70
3030
6018
6018
C3F8
C618
CC18
CC18
C638
C3EC
600C
6000
3810
0FF0
0000
0000
0000
0000
ENDCHAR
STARTCHAR char65
ENCODING 65
SWIDTH 2272 0
DWIDTH 16 0
BBX 16 20 0 -4
BITMAP
0000
0000
0000
0000
1FC0
03C0
0660
0660
0C30
0C30
1818
1FF8
300C
300C
6006
FC3F
0000
0000
0000
0000
ENDCHAR
STARTCHAR char66
ENCODING 66
SWIDTH 2272 0
DWIDTH 16 0
BBX 14 20 0 -4
BITMAP
0000
0000
0000
0000
FFE0
3030
3018
3018
3030
3FF0
3018
300C
300C
300C
3038
FFE0
0000
0000
0000
0000
ENDCHAR
STARTCHAR char67
ENCODING 67
SWIDTH 2272 0
DWIDTH 16 0
BBX 14 20 0 -4
BITMAP
0000
0000
0000
0000
0FF4
381C
600C
6004
C000
C000
C000
C000
E000
700C
383C
0FE0
0000
0000
0000
0000
ENDCHAR
STARTCHAR char68
ENCODING 68
SWIDTH 2272 0
DWIDTH 16 0
BBX 14 20 0 -4
BITMAP
0000
0000
0000
0000
FFC0
3070
3018
300C
300C
300C
300C
300C
300C
3018
3070
FFC0
0000
0000
0000
0000
ENDCHAR
STARTCHAR char69
ENCODING 69
SWIDTH 2272 0
DWIDTH 16 0
BBX 14 20 0 -4
BITMAP
0000
0000
0000
0000
FFFC
180C
1804
1804
1840
1FC0
1840
1840
1804
1804
180C
FFFC
0000
0000
0000
0000
ENDCHAR
STARTCHAR char70
ENCODING 70
SWIDTH 2272 0
DWIDTH 16 0
BBX 14 20 0 -4
BITMAP
0000
0000
0000
0000
FFFC
300C
300C
300C
3080
3F80
3080
3080
3000
3000
3000
FF00
0000
0000
0000
0000
ENDCHAR
STARTCHAR char71
ENCODING 71
SWIDTH 2272 0
DWIDTH 16 0
BBX 15 20 0 -4
BITMAP
0000
0000
0000
0000
0FEC
383C
600C
6000
C000
C000
C0FE
C00E
600E
600C
3838
0FE0
0000
0000
0000
0000
ENDCHAR
STARTCHAR char72
ENCODING 72
SWIDTH 2272 0
DWIDTH 16 0
BBX 15 20 0 -4
BITMAP
0000
0000
0000
0000
FC7E
3018
3018
3018
3018
3FF8
3018
3018
3018
3018
3018
FC7E
0000
0000
0000
0000
ENDCHAR
STARTCHAR char73
ENCODING 73
SWIDTH 2272 0
DWIDTH 16 0
BBX 12 20 2 -4
BITMAP
0000
0000
0000
0000
FFF0
0600
0600
0600
0600
0600
0600
0600
0600
0600
0600
FFF0
0000
0000
0000
0000
ENDCHAR
STARTCHAR char74
ENCODING 74
SWIDTH 2272 0
DWIDTH 16 0
BBX 14 20 1 -4
BITMAP
0000
0000
0000
0000
0FFC
0060
0060
0060
0060
0060
0060
C060
C060
C060
61C0
3F00
0000
0000
0000
0000
ENDCHAR
STARTCHAR char75
ENCODING 75
SWIDTH 2272 0
DWIDTH 16 0
BBX 15 20 0 -4
BITMAP
0000
0000
0000
0000
FCFC
3070
30C0
3180
3300
3F00
3300
3180
30C0
3060
3030
FC1E
0000
0000
0000
0000
ENDCHAR
STARTCHAR char76
ENCODING 76
SWIDTH 2272 0
DWIDTH 16 0
BBX 15 20 0 -4
BITMAP
0000
0000
0000
0000
7FC0
0C00
0C00
0C00
0C00
0C00
0C00
0C02
0C02
0C02
0C02
FFFE
0000
0000
0000
0000
ENDCHAR
STARTCHAR char77
ENCODING 77
SWIDTH 2272 0
DWIDTH 16 0
BBX 16 20 0 -4
BITMAP
0000
0000
0000
0000
781F
3C1E
3C36
3636
3666
3366
3346
31C6
3186
3006
3006
FC1F
0000
0000
0000
0000
ENDCHAR
STARTCHAR char78
ENCODING 78
SWIDTH 2272 0
DWIDTH 16 0
BBX 14 20 1 -4
BITMAP
0000
0000
0000
0000
F0FC
7818
7818
6C18
6618
6318
6198
6198
60D8
6078
6038
FC18
0000
0000
0000
0000
ENDCHAR
STARTCHAR char79
ENCODING 79
SWIDTH 2272 0
DWIDTH 16 0
BBX 15 20 0 -4
BITMAP
0000
0000
0000
0000
0FE0
3838
600C
600E
C006
C006
C006
C006
600C
6018
3870
0FC0
0000
0000
0000
0000
ENDCHAR
STARTCHAR char80
ENCODING 80
SWIDTH 2272 0
DWIDTH 16 0
BBX 14 20 1 -4
BITMAP
0000
0000
0000
0000
FFE0
1838
180C
180C
180C
1838
1FE0
1800
1800
1800
1800
FF00
0000
0000
0000
0000
ENDCHAR
STARTCHAR char81
ENCODING 81
SWIDTH 2272 0
DWIDTH 16 0
BBX 15 20 0 -4
BITMAP
0000
0000
0000
0000
0FE0
3838
600C
600E
C006
C006
C006
C006
600C
6018
3870
0FC0
0700
0C00
3F8C
60F8
ENDCHAR
STARTCHAR char82
ENCODING 82
SWIDTH 2272 0
DWIDTH 16 0
BBX 16 20 0 -4
BITMAP
0000
0000
0000
0000
FFE0
1838
180C
180C
180C
1838
1FE0
1860
1830
1818
180C
FF07
0000
0000
0000
0000
ENDCHAR
STARTCHAR char83
ENCODING 83
SWIDTH 2272 0
DWIDTH 16 0
BBX 12 20 0 -4
BITMAP
0000
0000
0000
0000
1FA0
7060
C020
C000
6000
3F80
00E0
0030
8030
C030
F0E0
9F80
0000
0000
0000
0000
ENDCHAR
STARTCHAR char84
ENCODING 84
SWIDTH 2272 0
DWIDTH 16 0
BBX 14 20 1 -4
BITMAP
0000
0000
0000
0000
FFFC
C30C
C30C
C30C
C30C
0300
0300
0300
0300
0300
0300
3FF0
0000
0000
0000
0000
ENDCHAR
STARTCHAR char85
ENCODING 85
SWIDTH 2272 0
DWIDTH 16 0
BBX 15 20 0 -4
BITMAP
0000
0000
0000
0000
FC7E
3008
3008
3008
3008
3008
3008
3008
3008
3008
1810
0FE0
0000
0000
0000
0000
ENDCHAR
STARTCHAR char86
ENCODING 86
SWIDTH 2272 0
DWIDTH 16 0
BBX 16 20 0 -4
BITMAP
0000
0000
0000
0000
FC3F
600C
3008
3018
1810
1830
0C20
0C60
0640
06C0
0380
0180
0000
0000
0000
0000
ENDCHAR
STARTCHAR char87
ENCODING 87
SWIDTH 2272 0
DWIDTH 16 0
BBX 16 20 0 -4
BITMAP
0000
0000
0000
0000
FC3F
6006
6006
6186
6186
33CC
324C
366C
342C
1C38
1838
1818
0000
0000
0000
0000
ENDCHAR
STARTCHAR char88
ENCODING 88
SWIDTH 2272 0
DWIDTH 16 0
BBX 15 20 0 -4
BITMAP
0000
0000
0000
0000
7C7E
3818
1C30
0E60
07C0
0380
03C0
06E0
0C70
1838
301C
FC7E
0000
0000
0000
0000
ENDCHAR
STARTCHAR char89
ENCODING 89
SWIDTH 2272 0
DWIDTH 16 0
BBX 14 20 1 -4
BITMAP
0000
0000
0000
0000
F87C
6018
3030
1860
0CC0
0780
0300
0300
0300
0300
0300
1FF0
0000
0000
0000
0000
ENDCHAR
STARTCHAR char90
ENCODING 90
SWIDTH 2272 0
DWIDTH 16 0
BBX 14 20 1 -4
BITMAP
0000
0000
0000
0000
7FF8
6030
6060
60C0
0180
0300
0600
0C00
180C
300C
600C
FFFC
0000
0000
0000
0000
ENDCHAR
STARTCHAR char91
ENCODING 91
SWIDTH 2272 0
DWIDTH 16 0
BBX 6 20 4 -4
BITMAP
00
00
00
FC
C0
C0
C0
C0
C0
C0
C0
C0
C0
C0
C0
C0
C0
FC
00
00
ENDCHAR
STARTCHAR char92
ENCODING 92
SWIDTH 2272 0
DWIDTH 16 0
BBX 16 20 0 -4
BITMAP
0000
0000
0000
C000
6000
3000
1800
0C00
0600
0300
0180
00C0
0060
0030
0018
000C
0006
0003
0000
0000
ENDCHAR
STARTCHAR char93
ENCODING 93
SWIDTH 2272 0
DWIDTH 16 0
BBX 6 20 4 -4
BITMAP
00
00
00
FC
0C
0C
0C
0C
0C
0C
0C
0C
0C
0C
0C
0C
0C
FC
00
00
ENDCHAR
STARTCHAR char94
ENCODING 94
SWIDTH 2130 0
DWIDTH 15 0
BBX 13 20 0 -4
BITMAP
0000
0700
0D80
18C0
3060
6030
C018
0000
0000
0000
0000
0000
0000
0000
0000
0000
0000
0000
0000
0000
ENDCHAR
STARTCHAR char95
ENCODING 95
SWIDTH 2130 0
DWIDTH 15 0
BBX 14 20 0 -4
BITMAP
0000
0000
0000
0000
0000
0000
0000
0000
0000
0000
0000
0000
0000
0000
0000
0000
0000
FFFC
FFFC
0000
ENDCHAR
STARTCHAR char96
ENCODING 96
SWIDTH 2272 0
DWIDTH 16 0
BBX 1 20 0 -4
BITMAP
00
00
00
00
00
00
00
00
00
00
00
00
00
00
00
00
00
00
00
00
ENDCHAR
STARTCHAR char97
ENCODING 97
SWIDTH 2272 0
DWIDTH 16 0
BBX 13 20 2 -4
BITMAP
0000
0000
0000
0000
0000
0000
0000
3F80
60E0
0060
3F60
61E0
C060
C0E0
E378
3E38
0000
0000
0000
0000
ENDCHAR
STARTCHAR char98
ENCODING 98
SWIDTH 2272 0
DWIDTH 16 0
BBX 14 20 1 -4
BITMAP
0000
0000
0000
F000
3000
3000
3000
37E0
3C38
300C
300C
300C
300C
380C
3C18
F7E0
0000
0000
0000
0000
ENDCHAR
STARTCHAR char99
ENCODING 99
SWIDTH 2272 0
DWIDTH 16 0
BBX 12 20 2 -4
BITMAP
0000
0000
0000
0000
0000
0000
0000
1FA0
70E0
C020
C000
C000
C000
6030
70E0
1F80
0000
0000
0000
0000
ENDCHAR
STARTCHAR char100
ENCODING 100
SWIDTH 2272 0
DWIDTH 16 0
BBX 14 20 1 -4
BITMAP
0000
0000
0000
03F0
0030
0030
0030
1FB0
3070
6030
C030
C030
C030
6070
70F0
1F1C
0000
0000
0000
0000
ENDCHAR
STARTCHAR char101
ENCODING 101
SWIDTH 2272 0
DWIDTH 16 0
BBX 13 20 1 -4
BITMAP
0000
0000
0000
0000
0000
0000
0000
1FC0
7070
C018
C018
FFF8
C000
6008
7038
1FE0
0000
0000
0000
0000
ENDCHAR
STARTCHAR char102
ENCODING 102
SWIDTH 2272 0
DWIDTH 16 0
BBX 12 20 2 -4
BITMAP
0000
0000
0000
03F0
0E00
1800
1800
1800
FFE0
1800
1800
1800
1800
1800
1800
FFE0
0000
0000
0000
0000
ENDCHAR
STARTCHAR char103
ENCODING 103
SWIDTH 2272 0
DWIDTH 16 0
BBX 14 20 1 -4
BITMAP
0000
0000
0000
0000
0000
0000
0000
3F9C
60F0
C030
C030
C030
C070
60B0
3F30
0030
0030
00E0
3F80
0000
ENDCHAR
STARTCHAR char104
ENCODING 104
SWIDTH 2272 0
DWIDTH 16 0
BBX 15 20 0 -4
BITMAP
0000
0000
0000
F800
1800
1800
1800
1BE0
1E38
180C
180C
180C
180C
180C
180C
7E3E
0000
0000
0000
0000
ENDCHAR
STARTCHAR char105
ENCODING 105
SWIDTH 2272 0
DWIDTH 16 0
BBX 12 20 2 -4
BITMAP
0000
0000
0000
0600
0600
0000
0000
7E00
0600
0600
0600
0600
0600
0600
0600
FFF0
0000
0000
0000
0000
ENDCHAR
STARTCHAR char106
ENCODING 106
SWIDTH 2272 0
DWIDTH 16 0
BBX 9 20 3 -4
BITMAP
0000
0000
0000
0700
0700
0000
0000
FF80
0180
0180
0180
0180
0180
0180
0180
0180
0180
0180
C300
7E00
ENDCHAR
STARTCHAR char107
ENCODING 107
SWIDTH 2272 0
DWIDTH 16 0
BBX 14 20 1 -4
BITMAP
0000
0000
0000
0000
F000
3000
3000
31F8
30E0
3380
3F00
3F00
3180
30E0
3038
F07C
0000
0000
0000
0000
ENDCHAR
STARTCHAR char108
ENCODING 108
SWIDTH 2272 0
DWIDTH 16 0
BBX 12 20 2 -4
BITMAP
0000
0000
0000
7E00
0600
0600
0600
0600
0600
0600
0600
0600
0600
0600
0600
FFF0
0000
0000
0000
0000
ENDCHAR
STARTCHAR char109
ENCODING 109
SWIDTH 2272 0
DWIDTH 16 0
BBX 16 20 0 -4
BITMAP
0000
0000
0000
0000
0000
0000
0000
DE78
73CE
6186
6186
6186
6186
6186
6186
F9E7
0000
0000
0000
0000
ENDCHAR
STARTCHAR char110
ENCODING 110
SWIDTH 2272 0
DWIDTH 16 0
BBX 14 20 1 -4
BITMAP
0000
0000
0000
0000
0000
0000
0000
E7C0
3C70
3030
3030
3030
3030
3030
3030
FC7C
0000
0000
0000
0000
ENDCHAR
STARTCHAR char111
ENCODING 111
SWIDTH 2272 0
DWIDTH 16 0
BBX 14 20 1 -4
BITMAP
0000
0000
0000
0000
0000
0000
0000
0FC0
3870
6018
C00C
C00C
C00C
6018
3830
0FE0
0000
0000
0000
0000
ENDCHAR
STARTCHAR char112
ENCODING 112
SWIDTH 2272 0
DWIDTH 16 0
BBX 15 20 0 -4
BITMAP
0000
0000
0000
0000
0000
0000
0000
73F0
1E1C
1806
1806
1806
1806
1806
1E1C
1BF0
1800
1800
1800
FF80
ENDCHAR
STARTCHAR char113
ENCODING 113
SWIDTH 2272 0
DWIDTH 16 0
BBX 15 20 1 -4
BITMAP
0000
0000
0000
0000
0000
0000
0000
0F80
30DE
6038
C018
C018
C018
6038
30D8
0F98
0018
0018
0018
01FE
ENDCHAR
STARTCHAR char114
ENCODING 114
SWIDTH 2272 0
DWIDTH 16 0
BBX 13 20 2 -4
BITMAP
0000
0000
0000
0000
0000
0000
0000
F8F0
1B18
1E00
1C00
1800
1800
1800
1800
FFE0
0000
0000
0000
0000
ENDCHAR
STARTCHAR char115
ENCODING 115
SWIDTH 2272 0
DWIDTH 16 0
BBX 11 20 2 -4
BITMAP
0000
0000
0000
0000
0000
0000
0000
3FA0
C0E0
C020
7000
0F00
00C0
8060
E060
BF80
0000
0000
0000
0000
ENDCHAR
STARTCHAR char116
ENCODING 116
SWIDTH 2272 0
DWIDTH 16 0
BBX 12 20 1 -4
BITMAP
0000
0000
0000
1800
1800
1800
1800
FFC0
1800
1800
1800
1800
1800
1800
0C70
07C0
0000
0000
0000
0000
ENDCHAR
STARTCHAR char117
ENCODING 117
SWIDTH 2272 0
DWIDTH 16 0
BBX 15 20 1 -4
BITMAP
0000
0000
0000
0000
0000
0000
0000
F0F8
3018
3018
3018
3018
3018
3038
187E
0FC6
0000
0000
0000
0000
ENDCHAR
STARTCHAR char118
ENCODING 118
SWIDTH 2272 0
DWIDTH 16 0
BBX 15 20 1 -4
BITMAP
0000
0000
0000
0000
0000
0000
0000
FC7E
3018
1830
1830
0C60
0C60
06C0
07C0
0380
0000
0000
0000
0000
ENDCHAR
STARTCHAR char119
ENCODING 119
SWIDTH 2272 0
DWIDTH 16 0
BBX 16 20 0 -4
BITMAP
0000
0000
0000
0000
0000
0000
0000
F81F
6006
6186
318C
318C
1A78
1E78
0C30
0C30
0000
0000
0000
0000
ENDCHAR
STARTCHAR char120
ENCODING 120
SWIDTH 2272 0
DWIDTH 16 0
BBX 15 20 1 -4
BITMAP
0000
0000
0000
0000
0000
0000
0000
FCFC
7030
1CE0
0780
0780
0DC0
1870
7038
FCFE
0000
0000
0000
0000
ENDCHAR
STARTCHAR char121
ENCODING 121
SWIDTH 2272 0
DWIDTH 16 0
BBX 15 20 1 -4
BITMAP
0000
0000
0000
0000
0000
0000
0000
F87E
600C
3018
1830
0C60
06C0
0380
0300
0600
0C00
1800
FF00
0000
ENDCHAR
STARTCHAR char122
ENCODING 122
SWIDTH 2272 0
DWIDTH 16 0
BBX 12 20 2 -4
BITMAP
0000
0000
0000
0000
0000
0000
0000
FFF0
C070
C0C0
0380
0600
1C00
3030
E030
FFF0
0000
0000
0000
0000
ENDCHAR
STARTCHAR char123
ENCODING 123
SWIDTH 2272 0
DWIDTH 16 0
BBX 1 20 0 -4
BITMAP
00
00
00
00
00
00
00
00
00
00
00
00
00
00
00
00
00
00
00
00
ENDCHAR
STARTCHAR char124
ENCODING 124
SWIDTH 2272 0
DWIDTH 16 0
BBX 1 20 0 -4
BITMAP
00
00
00
00
00
00
00
00
00
00
00
00
00
00
00
00
00
00
00
00
ENDCHAR
STARTCHAR char125
ENCODING 125
SWIDTH 2272 0
DWIDTH 16 0
BBX 1 20 0 -4
BITMAP
00
00
00
00
00
00
00
00
00
00
00
00
00
00
00
00
00
00
00
00
ENDCHAR
STARTCHAR char126
ENCODING 126
SWIDTH 2272 0
DWIDTH 16 0
BBX 1 20 0 -4
BITMAP
00
00
00
00
00
00
00
00
00
00
00
00
00
00
00
00
00
00
00
00
ENDCHAR
ENDFONT
